<?xml version="1.0" encoding="UTF-8"?>
<svg xmlns="http://www.w3.org/2000/svg" width="112" height="112" viewBox="0 0 112 112">
  <defs>
    <linearGradient id="bg" x1="0" y1="0" x2="1" y2="1">
      <stop offset="0" stop-color="hsl(293 75% 14%)"/>
      <stop offset="1" stop-color="hsl(337 85% 8%)"/>
    </linearGradient>
    <linearGradient id="body" x1="0" y1="0" x2="0" y2="1">
      <stop offset="0" stop-color="hsl(330 85% 68%)"/>
      <stop offset="1" stop-color="hsl(335 78% 52%)"/>
    </linearGradient>
    <linearGradient id="outfit" x1="0" y1="0" x2="0" y2="1">
      <stop offset="0" stop-color="hsl(184 68% 37%)"/>
      <stop offset="1" stop-color="hsl(184 58% 29%)"/>
    </linearGradient>
  </defs>

  <rect x="0" y="0" width="112" height="112" rx="22" fill="url(#bg)"/>
  <rect x="8" y="8" width="96" height="96" rx="18" fill="rgba(255,255,255,0.04)" stroke="rgba(255,255,255,0.10)"/>

  <circle cx="24" cy="48" r="8" fill="hsl(349 80% 55%)" opacity="0.95"/><circle cx="88" cy="48" r="8" fill="hsl(349 80% 55%)" opacity="0.95"/><path d="M 26 44 Q 56 20 86 44" stroke="hsl(19 85% 45%)" stroke-width="5" stroke-linecap="round" fill="none" opacity="0.9"/>

  <!-- body/head -->
  <rect x="28" y="16" width="56" height="78" rx="34" fill="url(#body)" stroke="rgba(0,0,0,0.22)"/>

  <path d="M 36 30 Q 56 10 76 30" stroke="hsl(33 51% 54%)" stroke-width="5" stroke-linecap="round" fill="none"/>

  <!-- strap -->
  <rect x="22" y="37" width="68" height="14" rx="7" fill="rgba(0,0,0,0.25)"/>

  <!-- goggles/eyes -->
  <circle cx="56" cy="44" r="15" fill="hsl(0 0% 88%)" stroke="hsl(0 0% 35%)" stroke-width="3"/><circle cx="56" cy="44" r="9.3" fill="white" stroke="rgba(0,0,0,0.10)" stroke-width="2"/><circle cx="56" cy="44" r="5.7" fill="hsl(101 70% 45%)"/><circle cx="54.9" cy="44" r="2.6999999999999997" fill="hsl(0 0% 12%)"/><circle cx="56.1" cy="42.6" r="1.3" fill="rgba(255,255,255,0.75)"/><path d="M 43 40 Q 56 34 69 40" stroke="rgba(0,0,0,0.25)" stroke-width="4" stroke-linecap="round" fill="none"/>

  <!-- mouth/face details -->
  
  
  <path d="M 42 66 Q 56 66 70 66" stroke="rgba(0,0,0,0.45)" stroke-width="3" stroke-linecap="round" fill="none"/>

  <!-- outfit -->
  <path d="M 30 64 C 40 56 46 56 56 62 C 66 56 72 56 82 64 L 82 96 L 30 96 Z" fill="url(#outfit)"/><rect x="38" y="62" width="10" height="16" rx="4" fill="url(#outfit)"/><rect x="64" y="62" width="10" height="16" rx="4" fill="url(#outfit)"/><circle cx="43" cy="74" r="2.4" fill="hsl(293 85% 60%)"/><circle cx="69" cy="74" r="2.4" fill="hsl(293 85% 60%)"/><rect x="48" y="78" width="16" height="12" rx="4" fill="rgba(0,0,0,0.18)"/><path d="M 51 84 L 61 84" stroke="rgba(255,255,255,0.30)" stroke-width="2" stroke-linecap="round"/>

  <!-- id label -->
  <text x="56" y="102" text-anchor="middle" font-family="ui-sans-serif, system-ui, -apple-system, Segoe UI, Roboto, Helvetica, Arial" font-size="8" fill="rgba(255,255,255,0.60)">ALPHA</text>
</svg>
