<?xml version="1.0" encoding="UTF-8"?>
<svg xmlns="http://www.w3.org/2000/svg" width="112" height="112" viewBox="0 0 112 112">
  <defs>
    <linearGradient id="bg" x1="0" y1="0" x2="1" y2="1">
      <stop offset="0" stop-color="hsl(329 75% 14%)"/>
      <stop offset="1" stop-color="hsl(50 85% 8%)"/>
    </linearGradient>
    <linearGradient id="body" x1="0" y1="0" x2="0" y2="1">
      <stop offset="0" stop-color="hsl(48 98% 62%)"/>
      <stop offset="1" stop-color="hsl(45 92% 52%)"/>
    </linearGradient>
    <linearGradient id="outfit" x1="0" y1="0" x2="0" y2="1">
      <stop offset="0" stop-color="hsl(201 59% 32%)"/>
      <stop offset="1" stop-color="hsl(201 49% 19%)"/>
    </linearGradient>
  </defs>

  <rect x="0" y="0" width="112" height="112" rx="22" fill="url(#bg)"/>
  <rect x="8" y="8" width="96" height="96" rx="18" fill="rgba(255,255,255,0.04)" stroke="rgba(255,255,255,0.10)"/>

  <path d="M 30 26 Q 56 8 82 26" fill="hsl(90 80% 55%)" opacity="0.95"/><rect x="30" y="24" width="52" height="10" rx="5" fill="hsl(120 85% 45%)" opacity="0.95"/>

  <!-- body/head -->
  <rect x="28" y="16" width="56" height="78" rx="34" fill="url(#body)" stroke="rgba(0,0,0,0.22)"/>

  <path d="M 38 32 Q 46 12 56 28 Q 66 12 74 32" stroke="hsl(312 48% 41%)" stroke-width="5" stroke-linecap="round" fill="none"/>

  <!-- strap -->
  <rect x="22" y="37" width="68" height="14" rx="7" fill="rgba(0,0,0,0.25)"/>

  <!-- goggles/eyes -->
  <circle cx="38" cy="44" r="13" fill="hsl(0 0% 20%)" stroke="hsl(0 0% 10%)" stroke-width="3"/><circle cx="38" cy="44" r="8.06" fill="white" stroke="rgba(0,0,0,0.10)" stroke-width="2"/><circle cx="38" cy="44" r="4.94" fill="hsl(158 70% 45%)"/><circle cx="37.45" cy="43.1" r="2.34" fill="hsl(0 0% 12%)"/><circle cx="38.650000000000006" cy="41.7" r="1.3" fill="rgba(255,255,255,0.75)"/><path d="M 27 40 Q 38 34 49 40" stroke="rgba(0,0,0,0.25)" stroke-width="4" stroke-linecap="round" fill="none"/>
  <circle cx="56" cy="44" r="13" fill="hsl(0 0% 20%)" stroke="hsl(0 0% 10%)" stroke-width="3"/><circle cx="56" cy="44" r="8.06" fill="white" stroke="rgba(0,0,0,0.10)" stroke-width="2"/><circle cx="56" cy="44" r="4.94" fill="hsl(158 70% 45%)"/><circle cx="56" cy="42.65" r="2.34" fill="hsl(0 0% 12%)"/><circle cx="57.2" cy="41.25" r="1.3" fill="rgba(255,255,255,0.75)"/><path d="M 45 40 Q 56 34 67 40" stroke="rgba(0,0,0,0.25)" stroke-width="4" stroke-linecap="round" fill="none"/>
  <circle cx="74" cy="44" r="13" fill="hsl(0 0% 20%)" stroke="hsl(0 0% 10%)" stroke-width="3"/><circle cx="74" cy="44" r="8.06" fill="white" stroke="rgba(0,0,0,0.10)" stroke-width="2"/><circle cx="74" cy="44" r="4.94" fill="hsl(158 70% 45%)"/><circle cx="72.9" cy="44.45" r="2.34" fill="hsl(0 0% 12%)"/><circle cx="74.10000000000001" cy="43.050000000000004" r="1.3" fill="rgba(255,255,255,0.75)"/><path d="M 63 40 Q 74 34 85 40" stroke="rgba(0,0,0,0.25)" stroke-width="4" stroke-linecap="round" fill="none"/>

  <!-- mouth/face details -->
  
  
  <path d="M 42 68 Q 56 60 70 68" stroke="rgba(0,0,0,0.45)" stroke-width="3" stroke-linecap="round" fill="none"/>

  <!-- outfit -->
  <path d="M 28 64 Q 56 48 84 64 L 84 96 L 28 96 Z" fill="url(#outfit)"/><path d="M 40 66 Q 56 56 72 66" stroke="rgba(255,255,255,0.25)" stroke-width="3" stroke-linecap="round" fill="none"/><path d="M 52 70 L 50 80 M 60 70 L 62 80" stroke="rgba(0,0,0,0.20)" stroke-width="2" stroke-linecap="round"/>

  <!-- id label -->
  <text x="56" y="102" text-anchor="middle" font-family="ui-sans-serif, system-ui, -apple-system, Segoe UI, Roboto, Helvetica, Arial" font-size="8" fill="rgba(255,255,255,0.60)">ATLAS</text>
</svg>
