<?xml version="1.0" encoding="UTF-8"?>
<svg xmlns="http://www.w3.org/2000/svg" width="112" height="112" viewBox="0 0 112 112">
  <defs>
    <linearGradient id="bg" x1="0" y1="0" x2="1" y2="1">
      <stop offset="0" stop-color="hsl(129 75% 14%)"/>
      <stop offset="1" stop-color="hsl(198 85% 8%)"/>
    </linearGradient>
    <linearGradient id="body" x1="0" y1="0" x2="0" y2="1">
      <stop offset="0" stop-color="hsl(25 90% 62%)"/>
      <stop offset="1" stop-color="hsl(18 82% 48%)"/>
    </linearGradient>
    <linearGradient id="outfit" x1="0" y1="0" x2="0" y2="1">
      <stop offset="0" stop-color="hsl(358 68% 38%)"/>
      <stop offset="1" stop-color="hsl(358 58% 27%)"/>
    </linearGradient>
  </defs>

  <rect x="0" y="0" width="112" height="112" rx="22" fill="url(#bg)"/>
  <rect x="8" y="8" width="96" height="96" rx="18" fill="rgba(255,255,255,0.04)" stroke="rgba(255,255,255,0.10)"/>

  <circle cx="74" cy="78" r="6" fill="hsl(141 80% 55%)" stroke="rgba(0,0,0,0.25)" stroke-width="2"/><path d="M 71 78 L 77 78" stroke="rgba(0,0,0,0.35)" stroke-width="2" stroke-linecap="round"/>

  <!-- body/head -->
  <rect x="28" y="16" width="56" height="78" rx="34" fill="url(#body)" stroke="rgba(0,0,0,0.22)"/>

  <path d="M 38 32 Q 46 12 56 28 Q 66 12 74 32" stroke="hsl(221 83% 23%)" stroke-width="5" stroke-linecap="round" fill="none"/>

  <!-- strap -->
  <rect x="22" y="37" width="68" height="14" rx="7" fill="rgba(0,0,0,0.25)"/>

  <!-- goggles/eyes -->
  <circle cx="56" cy="44" r="15" fill="hsl(46 95% 55%)" stroke="hsl(34 85% 22%)" stroke-width="3"/><circle cx="56" cy="44" r="9.3" fill="white" stroke="rgba(0,0,0,0.10)" stroke-width="2"/><circle cx="56" cy="44" r="5.7" fill="hsl(19 70% 45%)"/><circle cx="54.35" cy="43.1" r="2.6999999999999997" fill="hsl(0 0% 12%)"/><circle cx="55.550000000000004" cy="41.7" r="1.3" fill="rgba(255,255,255,0.75)"/>

  <!-- mouth/face details -->
  <circle cx="36" cy="62" r="4" fill="rgba(255,120,150,0.25)"/><circle cx="76" cy="62" r="4" fill="rgba(255,120,150,0.25)"/>
  
  <path d="M 42 66 Q 56 76 70 66" stroke="rgba(0,0,0,0.45)" stroke-width="3" stroke-linecap="round" fill="none"/>

  <!-- outfit -->
  <path d="M 30 62 L 82 62 L 82 96 L 30 96 Z" fill="url(#outfit)"/><path d="M 56 62 L 48 78 L 56 78 L 64 78 Z" fill="url(#outfit)"/><path d="M 48 62 L 56 78 L 64 62" fill="rgba(255,255,255,0.08)"/><rect x="54" y="78" width="4" height="14" rx="2" fill="rgba(0,0,0,0.25)"/>

  <!-- id label -->
  <text x="56" y="102" text-anchor="middle" font-family="ui-sans-serif, system-ui, -apple-system, Segoe UI, Roboto, Helvetica, Arial" font-size="8" fill="rgba(255,255,255,0.60)">DELTA</text>
</svg>
