<?xml version="1.0" encoding="UTF-8"?>
<svg xmlns="http://www.w3.org/2000/svg" width="112" height="112" viewBox="0 0 112 112">
  <defs>
    <linearGradient id="bg" x1="0" y1="0" x2="1" y2="1">
      <stop offset="0" stop-color="hsl(350 75% 14%)"/>
      <stop offset="1" stop-color="hsl(62 85% 8%)"/>
    </linearGradient>
    <linearGradient id="body" x1="0" y1="0" x2="0" y2="1">
      <stop offset="0" stop-color="hsl(330 85% 68%)"/>
      <stop offset="1" stop-color="hsl(335 78% 52%)"/>
    </linearGradient>
    <linearGradient id="outfit" x1="0" y1="0" x2="0" y2="1">
      <stop offset="0" stop-color="hsl(221 83% 39%)"/>
      <stop offset="1" stop-color="hsl(221 73% 25%)"/>
    </linearGradient>
  </defs>

  <rect x="0" y="0" width="112" height="112" rx="22" fill="url(#bg)"/>
  <rect x="8" y="8" width="96" height="96" rx="18" fill="rgba(255,255,255,0.04)" stroke="rgba(255,255,255,0.10)"/>

  <path d="M 30 26 Q 56 8 82 26" fill="hsl(123 80% 55%)" opacity="0.95"/><rect x="30" y="24" width="52" height="10" rx="5" fill="hsl(153 85% 45%)" opacity="0.95"/>

  <!-- body/head -->
  <rect x="28" y="16" width="56" height="78" rx="34" fill="url(#body)" stroke="rgba(0,0,0,0.22)"/>

  <path d="M 32 34 C 46 4 66 4 80 34" stroke="hsl(56 63% 50%)" stroke-width="6" stroke-linecap="round" fill="none"/>

  <!-- strap -->
  <rect x="22" y="37" width="68" height="14" rx="7" fill="rgba(0,0,0,0.25)"/>

  <!-- goggles/eyes -->
  <circle cx="44" cy="44" r="14" fill="hsl(0 0% 88%)" stroke="hsl(0 0% 35%)" stroke-width="3"/><circle cx="44" cy="44" r="8.68" fill="white" stroke="rgba(0,0,0,0.10)" stroke-width="2"/><circle cx="44" cy="44" r="5.32" fill="hsl(155 70% 45%)"/><circle cx="44.55" cy="44" r="2.52" fill="hsl(0 0% 12%)"/><circle cx="45.75" cy="42.6" r="1.3" fill="rgba(255,255,255,0.75)"/>
  <circle cx="68" cy="44" r="14" fill="hsl(0 0% 88%)" stroke="hsl(0 0% 35%)" stroke-width="3"/><circle cx="68" cy="44" r="8.68" fill="white" stroke="rgba(0,0,0,0.10)" stroke-width="2"/><circle cx="68" cy="44" r="5.32" fill="hsl(155 70% 45%)"/><circle cx="69.65" cy="42.65" r="2.52" fill="hsl(0 0% 12%)"/><circle cx="70.85000000000001" cy="41.25" r="1.3" fill="rgba(255,255,255,0.75)"/>

  <!-- mouth/face details -->
  <circle cx="36" cy="62" r="4" fill="rgba(255,120,150,0.25)"/><circle cx="76" cy="62" r="4" fill="rgba(255,120,150,0.25)"/>
  
  <path d="M 42 68 Q 56 60 70 68" stroke="rgba(0,0,0,0.45)" stroke-width="3" stroke-linecap="round" fill="none"/>

  <!-- outfit -->
  <path d="M 30 64 C 40 56 46 56 56 62 C 66 56 72 56 82 64 L 82 96 L 30 96 Z" fill="url(#outfit)"/><rect x="38" y="62" width="10" height="16" rx="4" fill="url(#outfit)"/><rect x="64" y="62" width="10" height="16" rx="4" fill="url(#outfit)"/><circle cx="43" cy="74" r="2.4" fill="hsl(350 85% 60%)"/><circle cx="69" cy="74" r="2.4" fill="hsl(350 85% 60%)"/><rect x="48" y="78" width="16" height="12" rx="4" fill="rgba(0,0,0,0.18)"/><path d="M 51 84 L 61 84" stroke="rgba(255,255,255,0.30)" stroke-width="2" stroke-linecap="round"/>

  <!-- id label -->
  <text x="56" y="102" text-anchor="middle" font-family="ui-sans-serif, system-ui, -apple-system, Segoe UI, Roboto, Helvetica, Arial" font-size="8" fill="rgba(255,255,255,0.60)">DRIFT</text>
</svg>
