<?xml version="1.0" encoding="UTF-8"?>
<svg xmlns="http://www.w3.org/2000/svg" width="112" height="112" viewBox="0 0 112 112">
  <defs>
    <linearGradient id="bg" x1="0" y1="0" x2="1" y2="1">
      <stop offset="0" stop-color="hsl(206 75% 14%)"/>
      <stop offset="1" stop-color="hsl(252 85% 8%)"/>
    </linearGradient>
    <linearGradient id="body" x1="0" y1="0" x2="0" y2="1">
      <stop offset="0" stop-color="hsl(48 98% 62%)"/>
      <stop offset="1" stop-color="hsl(45 92% 52%)"/>
    </linearGradient>
    <linearGradient id="outfit" x1="0" y1="0" x2="0" y2="1">
      <stop offset="0" stop-color="hsl(107 73% 28%)"/>
      <stop offset="1" stop-color="hsl(107 63% 33%)"/>
    </linearGradient>
  </defs>

  <rect x="0" y="0" width="112" height="112" rx="22" fill="url(#bg)"/>
  <rect x="8" y="8" width="96" height="96" rx="18" fill="rgba(255,255,255,0.04)" stroke="rgba(255,255,255,0.10)"/>

  <path d="M 46 22 Q 38 14 46 10 Q 54 14 46 22" fill="hsl(258 80% 55%)"/><path d="M 66 22 Q 74 14 66 10 Q 58 14 66 22" fill="hsl(258 80% 55%)"/><circle cx="56" cy="14" r="3" fill="hsl(288 85% 45%)"/>

  <!-- body/head -->
  <rect x="28" y="16" width="56" height="78" rx="34" fill="url(#body)" stroke="rgba(0,0,0,0.22)"/>

  <path d="M 30 38 Q 46 4 62 32 Q 72 14 82 36" stroke="hsl(251 80% 35%)" stroke-width="6" stroke-linecap="round" fill="none"/>

  <!-- strap -->
  <rect x="22" y="37" width="68" height="14" rx="7" fill="rgba(0,0,0,0.25)"/>

  <!-- goggles/eyes -->
  <circle cx="56" cy="44" r="15" fill="hsl(46 95% 55%)" stroke="hsl(34 85% 22%)" stroke-width="3"/><circle cx="56" cy="44" r="9.3" fill="white" stroke="rgba(0,0,0,0.10)" stroke-width="2"/><circle cx="56" cy="44" r="5.7" fill="hsl(21 70% 45%)"/><circle cx="57.65" cy="44.9" r="2.6999999999999997" fill="hsl(0 0% 12%)"/><circle cx="58.85" cy="43.5" r="1.3" fill="rgba(255,255,255,0.75)"/><path d="M 43 42 Q 56 57 69 42" stroke="rgba(0,0,0,0.35)" stroke-width="4" stroke-linecap="round" fill="none"/>

  <!-- mouth/face details -->
  
  
  <path d="M 42 68 Q 52 64 56 68 Q 60 72 70 68" stroke="rgba(0,0,0,0.45)" stroke-width="3" stroke-linecap="round" fill="none"/>

  <!-- outfit -->
  <path d="M 28 64 Q 56 48 84 64 L 84 96 L 28 96 Z" fill="url(#outfit)"/><path d="M 40 66 Q 56 56 72 66" stroke="rgba(255,255,255,0.25)" stroke-width="3" stroke-linecap="round" fill="none"/><path d="M 52 70 L 50 80 M 60 70 L 62 80" stroke="rgba(0,0,0,0.20)" stroke-width="2" stroke-linecap="round"/>

  <!-- id label -->
  <text x="56" y="102" text-anchor="middle" font-family="ui-sans-serif, system-ui, -apple-system, Segoe UI, Roboto, Helvetica, Arial" font-size="8" fill="rgba(255,255,255,0.60)">EQUINOX</text>
</svg>
