<?xml version="1.0" encoding="UTF-8"?>
<svg xmlns="http://www.w3.org/2000/svg" width="112" height="112" viewBox="0 0 112 112">
  <defs>
    <linearGradient id="bg" x1="0" y1="0" x2="1" y2="1">
      <stop offset="0" stop-color="hsl(122 75% 14%)"/>
      <stop offset="1" stop-color="hsl(181 85% 8%)"/>
    </linearGradient>
    <linearGradient id="body" x1="0" y1="0" x2="0" y2="1">
      <stop offset="0" stop-color="hsl(25 90% 62%)"/>
      <stop offset="1" stop-color="hsl(18 82% 48%)"/>
    </linearGradient>
    <linearGradient id="outfit" x1="0" y1="0" x2="0" y2="1">
      <stop offset="0" stop-color="hsl(330 75% 42%)"/>
      <stop offset="1" stop-color="hsl(330 65% 32%)"/>
    </linearGradient>
  </defs>

  <rect x="0" y="0" width="112" height="112" rx="22" fill="url(#bg)"/>
  <rect x="8" y="8" width="96" height="96" rx="18" fill="rgba(255,255,255,0.04)" stroke="rgba(255,255,255,0.10)"/>

  

  <!-- body/head -->
  <rect x="28" y="16" width="56" height="78" rx="34" fill="url(#body)" stroke="rgba(0,0,0,0.22)"/>

  <path d="M 38 32 Q 46 12 56 28 Q 66 12 74 32" stroke="hsl(219 58% 42%)" stroke-width="5" stroke-linecap="round" fill="none"/>

  <!-- strap -->
  <rect x="22" y="37" width="68" height="14" rx="7" fill="rgba(0,0,0,0.25)"/>

  <!-- goggles/eyes -->
  <circle cx="38" cy="44" r="13" fill="hsl(0 0% 88%)" stroke="hsl(0 0% 35%)" stroke-width="3"/><circle cx="38" cy="44" r="8.06" fill="white" stroke="rgba(0,0,0,0.10)" stroke-width="2"/><circle cx="38" cy="44" r="4.94" fill="hsl(7 70% 45%)"/><circle cx="37.45" cy="45.35" r="2.34" fill="hsl(0 0% 12%)"/><circle cx="38.650000000000006" cy="43.95" r="1.3" fill="rgba(255,255,255,0.75)"/><path d="M 27 42 Q 38 55 49 42" stroke="rgba(0,0,0,0.35)" stroke-width="4" stroke-linecap="round" fill="none"/>
  <circle cx="56" cy="44" r="13" fill="hsl(0 0% 88%)" stroke="hsl(0 0% 35%)" stroke-width="3"/><circle cx="56" cy="44" r="8.06" fill="white" stroke="rgba(0,0,0,0.10)" stroke-width="2"/><circle cx="56" cy="44" r="4.94" fill="hsl(7 70% 45%)"/><circle cx="54.9" cy="44.45" r="2.34" fill="hsl(0 0% 12%)"/><circle cx="56.1" cy="43.050000000000004" r="1.3" fill="rgba(255,255,255,0.75)"/><path d="M 45 42 Q 56 55 67 42" stroke="rgba(0,0,0,0.35)" stroke-width="4" stroke-linecap="round" fill="none"/>
  <circle cx="74" cy="44" r="13" fill="hsl(0 0% 88%)" stroke="hsl(0 0% 35%)" stroke-width="3"/><circle cx="74" cy="44" r="8.06" fill="white" stroke="rgba(0,0,0,0.10)" stroke-width="2"/><circle cx="74" cy="44" r="4.94" fill="hsl(7 70% 45%)"/><circle cx="74" cy="44" r="2.34" fill="hsl(0 0% 12%)"/><circle cx="75.2" cy="42.6" r="1.3" fill="rgba(255,255,255,0.75)"/><path d="M 63 42 Q 74 55 85 42" stroke="rgba(0,0,0,0.35)" stroke-width="4" stroke-linecap="round" fill="none"/>

  <!-- mouth/face details -->
  
  <circle cx="46" cy="60" r="1.2" fill="rgba(0,0,0,0.18)"/><circle cx="50" cy="62" r="1.2" fill="rgba(0,0,0,0.16)"/><circle cx="54" cy="60" r="1.2" fill="rgba(0,0,0,0.14)"/><circle cx="66" cy="60" r="1.2" fill="rgba(0,0,0,0.18)"/><circle cx="62" cy="62" r="1.2" fill="rgba(0,0,0,0.16)"/><circle cx="58" cy="60" r="1.2" fill="rgba(0,0,0,0.14)"/>
  <path d="M 42 67 Q 56 74 70 64" stroke="rgba(0,0,0,0.45)" stroke-width="3" stroke-linecap="round" fill="none"/>

  <!-- outfit -->
  <path d="M 30 62 L 82 62 L 82 96 L 30 96 Z" fill="url(#outfit)"/><path d="M 56 62 L 48 78 L 56 78 L 64 78 Z" fill="url(#outfit)"/><path d="M 48 62 L 56 78 L 64 62" fill="rgba(255,255,255,0.08)"/><rect x="54" y="78" width="4" height="14" rx="2" fill="rgba(0,0,0,0.25)"/>

  <!-- id label -->
  <text x="56" y="102" text-anchor="middle" font-family="ui-sans-serif, system-ui, -apple-system, Segoe UI, Roboto, Helvetica, Arial" font-size="8" fill="rgba(255,255,255,0.60)">FABLE</text>
</svg>
