<?xml version="1.0" encoding="UTF-8"?>
<svg xmlns="http://www.w3.org/2000/svg" width="96" height="96" viewBox="0 0 96 96">
  <defs>
    <linearGradient id="bg" x1="0" y1="0" x2="1" y2="1">
      <stop offset="0" stop-color="hsl(91 70% 14%)"/>
      <stop offset="1" stop-color="hsl(131 80% 8%)"/>
    </linearGradient>
    <linearGradient id="body" x1="0" y1="0" x2="0" y2="1">
      <stop offset="0" stop-color="hsl(48 98% 62%)"/>
      <stop offset="1" stop-color="hsl(45 92% 52%)"/>
    </linearGradient>
    <linearGradient id="denim" x1="0" y1="0" x2="0" y2="1">
      <stop offset="0" stop-color="hsl(210 85% 40%)"/>
      <stop offset="1" stop-color="hsl(210 85% 34%)"/>
    </linearGradient>
  </defs>

  <rect x="0" y="0" width="96" height="96" rx="20" fill="url(#bg)"/>
  <rect x="6" y="6" width="84" height="84" rx="16" fill="rgba(255,255,255,0.04)" stroke="rgba(255,255,255,0.10)"/>

  <!-- body -->
  <rect x="24" y="14" width="48" height="68" rx="30" fill="url(#body)" stroke="rgba(0,0,0,0.25)"/>

  <!-- hair -->
  <path d="M 38 16 L 40 7 L 42 16 M 54 16 L 56 7 L 58 16" stroke="rgba(0,0,0,0.35)" stroke-width="3" stroke-linecap="round" fill="none"/>

  <!-- goggle strap -->
  <rect x="22" y="30" width="52" height="12" rx="6" fill="rgba(0,0,0,0.25)"/>

  <!-- goggles + eyes -->
  <circle cx="40" cy="36" r="13" fill="hsl(0 0% 85%)" stroke="hsl(0 0% 35%)" stroke-width="3"/><circle cx="40" cy="36" r="8" fill="white" stroke="hsl(0 0% 75%)" stroke-width="1"/><circle cx="40.5" cy="36" r="3.5" fill="hsl(0 0% 12%)"/><circle cx="41.7" cy="34.8" r="1.2" fill="rgba(255,255,255,0.75)"/>
  <circle cx="56" cy="36" r="13" fill="hsl(0 0% 85%)" stroke="hsl(0 0% 35%)" stroke-width="3"/><circle cx="56" cy="36" r="8" fill="white" stroke="hsl(0 0% 75%)" stroke-width="1"/><circle cx="56.5" cy="34.65" r="3.5" fill="hsl(0 0% 12%)"/><circle cx="57.7" cy="33.449999999999996" r="1.2" fill="rgba(255,255,255,0.75)"/>
  <path d="M 53 36 L 43 36" stroke="hsl(0 0% 35%)" stroke-width="6" stroke-linecap="round"/>

  <!-- mouth -->
  <path d="M 38 56 Q 48 66 58 56" stroke="rgba(0,0,0,0.45)" stroke-width="3" stroke-linecap="round" fill="none"/>

  <!-- overalls -->
  <path d="M 28 52 C 34 48 40 48 48 52 C 56 48 62 48 68 52 L 68 82 L 28 82 Z" fill="url(#denim)"/>
  <rect x="34" y="50" width="8" height="12" rx="3" fill="url(#denim)"/>
  <rect x="54" y="50" width="8" height="12" rx="3" fill="url(#denim)"/>
  <circle cx="38" cy="60" r="2.2" fill="hsl(91 85% 60%)"/>
  <circle cx="58" cy="60" r="2.2" fill="hsl(91 85% 60%)"/>
  <rect x="42" y="66" width="12" height="10" rx="3" fill="rgba(0,0,0,0.18)"/>
  <path d="M 44 71 L 52 71" stroke="rgba(255,255,255,0.35)" stroke-width="2" stroke-linecap="round"/>

  <!-- label (debuggable, small) -->
  <text x="48" y="88" text-anchor="middle" font-family="ui-sans-serif, system-ui, -apple-system, Segoe UI, Roboto, Helvetica, Arial" font-size="8" fill="rgba(255,255,255,0.60)">FORGE</text>
</svg>
