<?xml version="1.0" encoding="UTF-8"?>
<svg xmlns="http://www.w3.org/2000/svg" width="112" height="112" viewBox="0 0 112 112">
  <defs>
    <linearGradient id="bg" x1="0" y1="0" x2="1" y2="1">
      <stop offset="0" stop-color="hsl(56 75% 14%)"/>
      <stop offset="1" stop-color="hsl(132 85% 8%)"/>
    </linearGradient>
    <linearGradient id="body" x1="0" y1="0" x2="0" y2="1">
      <stop offset="0" stop-color="hsl(160 75% 58%)"/>
      <stop offset="1" stop-color="hsl(160 70% 44%)"/>
    </linearGradient>
    <linearGradient id="outfit" x1="0" y1="0" x2="0" y2="1">
      <stop offset="0" stop-color="hsl(314 84% 30%)"/>
      <stop offset="1" stop-color="hsl(314 74% 30%)"/>
    </linearGradient>
  </defs>

  <rect x="0" y="0" width="112" height="112" rx="22" fill="url(#bg)"/>
  <rect x="8" y="8" width="96" height="96" rx="18" fill="rgba(255,255,255,0.04)" stroke="rgba(255,255,255,0.10)"/>

  <path d="M 30 26 Q 56 8 82 26" fill="hsl(229 80% 55%)" opacity="0.95"/><rect x="30" y="24" width="52" height="10" rx="5" fill="hsl(259 85% 45%)" opacity="0.95"/>

  <!-- body/head -->
  <rect x="28" y="16" width="56" height="78" rx="34" fill="url(#body)" stroke="rgba(0,0,0,0.22)"/>

  <path d="M 46 26 L 50 14 L 54 26" stroke="hsl(85 79% 51%)" stroke-width="4" stroke-linecap="round" fill="none"/>

  <!-- strap -->
  <rect x="22" y="37" width="68" height="14" rx="7" fill="rgba(0,0,0,0.25)"/>

  <!-- goggles/eyes -->
  <circle cx="56" cy="44" r="15" fill="hsl(0 0% 20%)" stroke="hsl(0 0% 10%)" stroke-width="3"/><circle cx="56" cy="44" r="9.3" fill="white" stroke="rgba(0,0,0,0.10)" stroke-width="2"/><circle cx="56" cy="44" r="5.7" fill="hsl(248 70% 45%)"/><circle cx="56.55" cy="44.45" r="2.6999999999999997" fill="hsl(0 0% 12%)"/><circle cx="57.75" cy="43.050000000000004" r="1.3" fill="rgba(255,255,255,0.75)"/>

  <!-- mouth/face details -->
  
  <circle cx="46" cy="60" r="1.2" fill="rgba(0,0,0,0.18)"/><circle cx="50" cy="62" r="1.2" fill="rgba(0,0,0,0.16)"/><circle cx="54" cy="60" r="1.2" fill="rgba(0,0,0,0.14)"/><circle cx="66" cy="60" r="1.2" fill="rgba(0,0,0,0.18)"/><circle cx="62" cy="62" r="1.2" fill="rgba(0,0,0,0.16)"/><circle cx="58" cy="60" r="1.2" fill="rgba(0,0,0,0.14)"/>
  <path d="M 42 66 Q 56 76 70 66" stroke="rgba(0,0,0,0.45)" stroke-width="3" stroke-linecap="round" fill="none"/>

  <!-- outfit -->
  <path d="M 28 64 Q 56 48 84 64 L 84 96 L 28 96 Z" fill="url(#outfit)"/><path d="M 40 66 Q 56 56 72 66" stroke="rgba(255,255,255,0.25)" stroke-width="3" stroke-linecap="round" fill="none"/><path d="M 52 70 L 50 80 M 60 70 L 62 80" stroke="rgba(0,0,0,0.20)" stroke-width="2" stroke-linecap="round"/>

  <!-- id label -->
  <text x="56" y="102" text-anchor="middle" font-family="ui-sans-serif, system-ui, -apple-system, Segoe UI, Roboto, Helvetica, Arial" font-size="8" fill="rgba(255,255,255,0.60)">IRIS</text>
</svg>
