<?xml version="1.0" encoding="UTF-8"?>
<svg xmlns="http://www.w3.org/2000/svg" width="112" height="112" viewBox="0 0 112 112">
  <defs>
    <linearGradient id="bg" x1="0" y1="0" x2="1" y2="1">
      <stop offset="0" stop-color="hsl(121 75% 14%)"/>
      <stop offset="1" stop-color="hsl(196 85% 8%)"/>
    </linearGradient>
    <linearGradient id="body" x1="0" y1="0" x2="0" y2="1">
      <stop offset="0" stop-color="hsl(330 85% 68%)"/>
      <stop offset="1" stop-color="hsl(335 78% 52%)"/>
    </linearGradient>
    <linearGradient id="outfit" x1="0" y1="0" x2="0" y2="1">
      <stop offset="0" stop-color="hsl(53 63% 42%)"/>
      <stop offset="1" stop-color="hsl(53 53% 27%)"/>
    </linearGradient>
  </defs>

  <rect x="0" y="0" width="112" height="112" rx="22" fill="url(#bg)"/>
  <rect x="8" y="8" width="96" height="96" rx="18" fill="rgba(255,255,255,0.04)" stroke="rgba(255,255,255,0.10)"/>

  <path d="M 30 26 Q 56 8 82 26" fill="hsl(226 80% 55%)" opacity="0.95"/><rect x="30" y="24" width="52" height="10" rx="5" fill="hsl(256 85% 45%)" opacity="0.95"/>

  <!-- body/head -->
  <rect x="28" y="16" width="56" height="78" rx="34" fill="url(#body)" stroke="rgba(0,0,0,0.22)"/>

  <path d="M 30 38 Q 46 4 62 32 Q 72 14 82 36" stroke="hsl(98 52% 38%)" stroke-width="6" stroke-linecap="round" fill="none"/>

  <!-- strap -->
  <rect x="22" y="37" width="68" height="14" rx="7" fill="rgba(255,255,255,0.10)"/>

  <!-- goggles/eyes -->
  <circle cx="38" cy="44" r="13" fill="hsl(0 0% 88%)" stroke="hsl(0 0% 35%)" stroke-width="3"/><circle cx="38" cy="44" r="8.06" fill="white" stroke="rgba(0,0,0,0.10)" stroke-width="2"/><circle cx="38" cy="44" r="4.94" fill="hsl(310 70% 45%)"/><circle cx="38.55" cy="42.65" r="2.34" fill="hsl(0 0% 12%)"/><circle cx="39.75" cy="41.25" r="1.3" fill="rgba(255,255,255,0.75)"/>
  <circle cx="56" cy="44" r="13" fill="hsl(0 0% 88%)" stroke="hsl(0 0% 35%)" stroke-width="3"/><circle cx="56" cy="44" r="8.06" fill="white" stroke="rgba(0,0,0,0.10)" stroke-width="2"/><circle cx="56" cy="44" r="4.94" fill="hsl(310 70% 45%)"/><circle cx="57.65" cy="45.35" r="2.34" fill="hsl(0 0% 12%)"/><circle cx="58.85" cy="43.95" r="1.3" fill="rgba(255,255,255,0.75)"/>
  <circle cx="74" cy="44" r="13" fill="hsl(0 0% 88%)" stroke="hsl(0 0% 35%)" stroke-width="3"/><circle cx="74" cy="44" r="8.06" fill="white" stroke="rgba(0,0,0,0.10)" stroke-width="2"/><circle cx="74" cy="44" r="4.94" fill="hsl(310 70% 45%)"/><circle cx="73.45" cy="45.35" r="2.34" fill="hsl(0 0% 12%)"/><circle cx="74.65" cy="43.95" r="1.3" fill="rgba(255,255,255,0.75)"/>

  <!-- mouth/face details -->
  <circle cx="36" cy="62" r="4" fill="rgba(255,120,150,0.25)"/><circle cx="76" cy="62" r="4" fill="rgba(255,120,150,0.25)"/>
  
  <path d="M 42 67 Q 56 74 70 64" stroke="rgba(0,0,0,0.45)" stroke-width="3" stroke-linecap="round" fill="none"/>

  <!-- outfit -->
  <path d="M 30 60 Q 56 50 82 60 L 82 96 L 30 96 Z" fill="url(#outfit)"/><path d="M 56 60 L 56 96" stroke="rgba(255,255,255,0.20)" stroke-width="3"/><path d="M 40 76 Q 56 86 72 76" stroke="url(#outfit)" stroke-width="4" stroke-linecap="round" fill="none"/>

  <!-- id label -->
  <text x="56" y="102" text-anchor="middle" font-family="ui-sans-serif, system-ui, -apple-system, Segoe UI, Roboto, Helvetica, Arial" font-size="8" fill="rgba(255,255,255,0.60)">JADE</text>
</svg>
