<?xml version="1.0" encoding="UTF-8"?>
<svg xmlns="http://www.w3.org/2000/svg" width="112" height="112" viewBox="0 0 112 112">
  <defs>
    <linearGradient id="bg" x1="0" y1="0" x2="1" y2="1">
      <stop offset="0" stop-color="hsl(5 75% 14%)"/>
      <stop offset="1" stop-color="hsl(47 85% 8%)"/>
    </linearGradient>
    <linearGradient id="body" x1="0" y1="0" x2="0" y2="1">
      <stop offset="0" stop-color="hsl(55 92% 70%)"/>
      <stop offset="1" stop-color="hsl(48 88% 56%)"/>
    </linearGradient>
    <linearGradient id="outfit" x1="0" y1="0" x2="0" y2="1">
      <stop offset="0" stop-color="hsl(320 55% 30%)"/>
      <stop offset="1" stop-color="hsl(320 45% 33%)"/>
    </linearGradient>
  </defs>

  <rect x="0" y="0" width="112" height="112" rx="22" fill="url(#bg)"/>
  <rect x="8" y="8" width="96" height="96" rx="18" fill="rgba(255,255,255,0.04)" stroke="rgba(255,255,255,0.10)"/>

  <path d="M 56 14 L 56 4" stroke="hsl(155 85% 45%)" stroke-width="4" stroke-linecap="round"/><circle cx="56" cy="4" r="4" fill="hsl(125 80% 55%)"/>

  <!-- body/head -->
  <rect x="28" y="16" width="56" height="78" rx="34" fill="url(#body)" stroke="rgba(0,0,0,0.22)"/>

  

  <!-- strap -->
  <rect x="22" y="37" width="68" height="14" rx="7" fill="rgba(0,0,0,0.25)"/>

  <!-- goggles/eyes -->
  <circle cx="44" cy="44" r="14" fill="hsl(0 0% 88%)" stroke="hsl(0 0% 35%)" stroke-width="3"/><circle cx="44" cy="44" r="8.68" fill="white" stroke="rgba(0,0,0,0.10)" stroke-width="2"/><circle cx="44" cy="44" r="5.32" fill="hsl(230 70% 45%)"/><circle cx="42.9" cy="43.1" r="2.52" fill="hsl(0 0% 12%)"/><circle cx="44.1" cy="41.7" r="1.3" fill="rgba(255,255,255,0.75)"/><path d="M 32 40 Q 44 34 56 40" stroke="rgba(0,0,0,0.25)" stroke-width="4" stroke-linecap="round" fill="none"/>
  <circle cx="68" cy="44" r="14" fill="hsl(0 0% 88%)" stroke="hsl(0 0% 35%)" stroke-width="3"/><circle cx="68" cy="44" r="8.68" fill="white" stroke="rgba(0,0,0,0.10)" stroke-width="2"/><circle cx="68" cy="44" r="5.32" fill="hsl(230 70% 45%)"/><circle cx="69.1" cy="44.9" r="2.52" fill="hsl(0 0% 12%)"/><circle cx="70.3" cy="43.5" r="1.3" fill="rgba(255,255,255,0.75)"/><path d="M 56 40 Q 68 34 80 40" stroke="rgba(0,0,0,0.25)" stroke-width="4" stroke-linecap="round" fill="none"/>

  <!-- mouth/face details -->
  <circle cx="36" cy="62" r="4" fill="rgba(255,120,150,0.25)"/><circle cx="76" cy="62" r="4" fill="rgba(255,120,150,0.25)"/>
  
  <path d="M 42 68 Q 52 64 56 68 Q 60 72 70 68" stroke="rgba(0,0,0,0.45)" stroke-width="3" stroke-linecap="round" fill="none"/>

  <!-- outfit -->
  <path d="M 28 64 Q 56 48 84 64 L 84 96 L 28 96 Z" fill="url(#outfit)"/><path d="M 40 66 Q 56 56 72 66" stroke="rgba(255,255,255,0.25)" stroke-width="3" stroke-linecap="round" fill="none"/><path d="M 52 70 L 50 80 M 60 70 L 62 80" stroke="rgba(0,0,0,0.20)" stroke-width="2" stroke-linecap="round"/>

  <!-- id label -->
  <text x="56" y="102" text-anchor="middle" font-family="ui-sans-serif, system-ui, -apple-system, Segoe UI, Roboto, Helvetica, Arial" font-size="8" fill="rgba(255,255,255,0.60)">MOSS</text>
</svg>
