<?xml version="1.0" encoding="UTF-8"?>
<svg xmlns="http://www.w3.org/2000/svg" width="112" height="112" viewBox="0 0 112 112">
  <defs>
    <linearGradient id="bg" x1="0" y1="0" x2="1" y2="1">
      <stop offset="0" stop-color="hsl(337 75% 14%)"/>
      <stop offset="1" stop-color="hsl(27 85% 8%)"/>
    </linearGradient>
    <linearGradient id="body" x1="0" y1="0" x2="0" y2="1">
      <stop offset="0" stop-color="hsl(55 92% 70%)"/>
      <stop offset="1" stop-color="hsl(48 88% 56%)"/>
    </linearGradient>
    <linearGradient id="outfit" x1="0" y1="0" x2="0" y2="1">
      <stop offset="0" stop-color="hsl(225 67% 36%)"/>
      <stop offset="1" stop-color="hsl(225 57% 25%)"/>
    </linearGradient>
  </defs>

  <rect x="0" y="0" width="112" height="112" rx="22" fill="url(#bg)"/>
  <rect x="8" y="8" width="96" height="96" rx="18" fill="rgba(255,255,255,0.04)" stroke="rgba(255,255,255,0.10)"/>

  <circle cx="24" cy="48" r="8" fill="hsl(339 80% 55%)" opacity="0.95"/><circle cx="88" cy="48" r="8" fill="hsl(339 80% 55%)" opacity="0.95"/><path d="M 26 44 Q 56 20 86 44" stroke="hsl(9 85% 45%)" stroke-width="5" stroke-linecap="round" fill="none" opacity="0.9"/>

  <!-- body/head -->
  <rect x="28" y="16" width="56" height="78" rx="34" fill="url(#body)" stroke="rgba(0,0,0,0.22)"/>

  <path d="M 30 32 L 38 12 L 46 32 L 54 10 L 62 32 L 70 14 L 78 32" stroke="hsl(341 40% 35%)" stroke-width="4" stroke-linecap="round" fill="none"/>

  <!-- strap -->
  <rect x="22" y="37" width="68" height="14" rx="7" fill="rgba(0,0,0,0.25)"/>

  <!-- goggles/eyes -->
  <circle cx="44" cy="44" r="14" fill="hsl(0 0% 88%)" stroke="hsl(0 0% 35%)" stroke-width="3"/><circle cx="44" cy="44" r="8.68" fill="white" stroke="rgba(0,0,0,0.10)" stroke-width="2"/><circle cx="44" cy="44" r="5.32" fill="hsl(201 70% 45%)"/><circle cx="43.45" cy="42.65" r="2.52" fill="hsl(0 0% 12%)"/><circle cx="44.650000000000006" cy="41.25" r="1.3" fill="rgba(255,255,255,0.75)"/>
  <circle cx="68" cy="44" r="14" fill="hsl(0 0% 88%)" stroke="hsl(0 0% 35%)" stroke-width="3"/><circle cx="68" cy="44" r="8.68" fill="white" stroke="rgba(0,0,0,0.10)" stroke-width="2"/><circle cx="68" cy="44" r="5.32" fill="hsl(201 70% 45%)"/><circle cx="69.1" cy="45.35" r="2.52" fill="hsl(0 0% 12%)"/><circle cx="70.3" cy="43.95" r="1.3" fill="rgba(255,255,255,0.75)"/>

  <!-- mouth/face details -->
  <circle cx="36" cy="62" r="4" fill="rgba(255,120,150,0.25)"/><circle cx="76" cy="62" r="4" fill="rgba(255,120,150,0.25)"/>
  <circle cx="46" cy="60" r="1.2" fill="rgba(0,0,0,0.18)"/><circle cx="50" cy="62" r="1.2" fill="rgba(0,0,0,0.16)"/><circle cx="54" cy="60" r="1.2" fill="rgba(0,0,0,0.14)"/><circle cx="66" cy="60" r="1.2" fill="rgba(0,0,0,0.18)"/><circle cx="62" cy="62" r="1.2" fill="rgba(0,0,0,0.16)"/><circle cx="58" cy="60" r="1.2" fill="rgba(0,0,0,0.14)"/>
  <path d="M 42 67 Q 56 74 70 64" stroke="rgba(0,0,0,0.45)" stroke-width="3" stroke-linecap="round" fill="none"/>

  <!-- outfit -->
  <path d="M 30 62 L 82 62 L 82 96 L 30 96 Z" fill="url(#outfit)"/><path d="M 56 62 L 48 78 L 56 78 L 64 78 Z" fill="url(#outfit)"/><path d="M 48 62 L 56 78 L 64 62" fill="rgba(255,255,255,0.08)"/><rect x="54" y="78" width="4" height="14" rx="2" fill="rgba(0,0,0,0.25)"/>

  <!-- id label -->
  <text x="56" y="102" text-anchor="middle" font-family="ui-sans-serif, system-ui, -apple-system, Segoe UI, Roboto, Helvetica, Arial" font-size="8" fill="rgba(255,255,255,0.60)">NOVA</text>
</svg>
