<?xml version="1.0" encoding="UTF-8"?>
<svg xmlns="http://www.w3.org/2000/svg" width="112" height="112" viewBox="0 0 112 112">
  <defs>
    <linearGradient id="bg" x1="0" y1="0" x2="1" y2="1">
      <stop offset="0" stop-color="hsl(219 75% 14%)"/>
      <stop offset="1" stop-color="hsl(290 85% 8%)"/>
    </linearGradient>
    <linearGradient id="body" x1="0" y1="0" x2="0" y2="1">
      <stop offset="0" stop-color="hsl(25 90% 62%)"/>
      <stop offset="1" stop-color="hsl(18 82% 48%)"/>
    </linearGradient>
    <linearGradient id="outfit" x1="0" y1="0" x2="0" y2="1">
      <stop offset="0" stop-color="hsl(95 83% 43%)"/>
      <stop offset="1" stop-color="hsl(95 73% 30%)"/>
    </linearGradient>
  </defs>

  <rect x="0" y="0" width="112" height="112" rx="22" fill="url(#bg)"/>
  <rect x="8" y="8" width="96" height="96" rx="18" fill="rgba(255,255,255,0.04)" stroke="rgba(255,255,255,0.10)"/>

  <path d="M 46 22 Q 38 14 46 10 Q 54 14 46 22" fill="hsl(238 80% 55%)"/><path d="M 66 22 Q 74 14 66 10 Q 58 14 66 22" fill="hsl(238 80% 55%)"/><circle cx="56" cy="14" r="3" fill="hsl(268 85% 45%)"/>

  <!-- body/head -->
  <rect x="28" y="16" width="56" height="78" rx="34" fill="url(#body)" stroke="rgba(0,0,0,0.22)"/>

  <path d="M 36 30 Q 56 10 76 30" stroke="hsl(243 54% 33%)" stroke-width="5" stroke-linecap="round" fill="none"/>

  <!-- strap -->
  <rect x="22" y="37" width="68" height="14" rx="7" fill="rgba(255,255,255,0.10)"/>

  <!-- goggles/eyes -->
  <circle cx="44" cy="44" r="14" fill="hsl(0 0% 20%)" stroke="hsl(0 0% 10%)" stroke-width="3"/><circle cx="44" cy="44" r="8.68" fill="white" stroke="rgba(0,0,0,0.10)" stroke-width="2"/><circle cx="44" cy="44" r="5.32" fill="hsl(59 70% 45%)"/><circle cx="42.35" cy="44.45" r="2.52" fill="hsl(0 0% 12%)"/><circle cx="43.550000000000004" cy="43.050000000000004" r="1.3" fill="rgba(255,255,255,0.75)"/>
  <circle cx="68" cy="44" r="14" fill="hsl(0 0% 20%)" stroke="hsl(0 0% 10%)" stroke-width="3"/><circle cx="68" cy="44" r="8.68" fill="white" stroke="rgba(0,0,0,0.10)" stroke-width="2"/><circle cx="68" cy="44" r="5.32" fill="hsl(59 70% 45%)"/><circle cx="68.55" cy="44" r="2.52" fill="hsl(0 0% 12%)"/><circle cx="69.75" cy="42.6" r="1.3" fill="rgba(255,255,255,0.75)"/>

  <!-- mouth/face details -->
  
  
  <path d="M 42 68 Q 52 64 56 68 Q 60 72 70 68" stroke="rgba(0,0,0,0.45)" stroke-width="3" stroke-linecap="round" fill="none"/>

  <!-- outfit -->
  <path d="M 30 60 Q 56 50 82 60 L 82 96 L 30 96 Z" fill="url(#outfit)"/><path d="M 56 60 L 56 96" stroke="rgba(255,255,255,0.20)" stroke-width="3"/><path d="M 40 76 Q 56 86 72 76" stroke="url(#outfit)" stroke-width="4" stroke-linecap="round" fill="none"/>

  <!-- id label -->
  <text x="56" y="102" text-anchor="middle" font-family="ui-sans-serif, system-ui, -apple-system, Segoe UI, Roboto, Helvetica, Arial" font-size="8" fill="rgba(255,255,255,0.60)">ONYX</text>
</svg>
