<?xml version="1.0" encoding="UTF-8"?>
<svg xmlns="http://www.w3.org/2000/svg" width="80" height="80" viewBox="0 0 80 80">
  <defs>
    <linearGradient id="g" x1="0" y1="0" x2="1" y2="1">
      <stop offset="0" stop-color="hsl(296 80% 18%)"/>
      <stop offset="1" stop-color="hsl(296 80% 8%)"/>
    </linearGradient>
  </defs>
  <rect x="0" y="0" width="80" height="80" rx="18" fill="url(#g)"/>
  <rect x="6" y="6" width="68" height="68" rx="14" fill="hsl(296 70% 10%)" opacity="0.35"/>
  <rect x="10" y="10" width="12" height="12" rx="3" fill="hsl(85 80% 55%)"/><rect x="58" y="10" width="12" height="12" rx="3" fill="hsl(85 80% 55%)"/><rect x="10" y="22" width="12" height="12" rx="3" fill="hsl(187 85% 60%)"/><rect x="58" y="22" width="12" height="12" rx="3" fill="hsl(187 85% 60%)"/><rect x="22" y="22" width="12" height="12" rx="3" fill="hsl(85 80% 55%)"/><rect x="46" y="22" width="12" height="12" rx="3" fill="hsl(85 80% 55%)"/><rect x="10" y="34" width="12" height="12" rx="3" fill="hsl(85 80% 55%)"/><rect x="58" y="34" width="12" height="12" rx="3" fill="hsl(85 80% 55%)"/><rect x="22" y="34" width="12" height="12" rx="3" fill="hsl(187 85% 60%)"/><rect x="46" y="34" width="12" height="12" rx="3" fill="hsl(187 85% 60%)"/><rect x="34" y="34" width="12" height="12" rx="3" fill="hsl(85 80% 55%)"/><rect x="34" y="46" width="12" height="12" rx="3" fill="hsl(187 85% 60%)"/><rect x="10" y="58" width="12" height="12" rx="3" fill="hsl(85 80% 55%)"/><rect x="58" y="58" width="12" height="12" rx="3" fill="hsl(85 80% 55%)"/>
  <text x="40" y="72" text-anchor="middle" font-family="ui-sans-serif, system-ui, -apple-system, Segoe UI, Roboto, Helvetica, Arial" font-size="10" fill="rgba(255,255,255,0.72)">ONYX</text>
</svg>
