<?xml version="1.0" encoding="UTF-8"?>
<svg xmlns="http://www.w3.org/2000/svg" width="112" height="112" viewBox="0 0 112 112">
  <defs>
    <linearGradient id="bg" x1="0" y1="0" x2="1" y2="1">
      <stop offset="0" stop-color="hsl(279 75% 14%)"/>
      <stop offset="1" stop-color="hsl(325 85% 8%)"/>
    </linearGradient>
    <linearGradient id="body" x1="0" y1="0" x2="0" y2="1">
      <stop offset="0" stop-color="hsl(48 98% 62%)"/>
      <stop offset="1" stop-color="hsl(45 92% 52%)"/>
    </linearGradient>
    <linearGradient id="outfit" x1="0" y1="0" x2="0" y2="1">
      <stop offset="0" stop-color="hsl(157 59% 32%)"/>
      <stop offset="1" stop-color="hsl(157 49% 32%)"/>
    </linearGradient>
  </defs>

  <rect x="0" y="0" width="112" height="112" rx="22" fill="url(#bg)"/>
  <rect x="8" y="8" width="96" height="96" rx="18" fill="rgba(255,255,255,0.04)" stroke="rgba(255,255,255,0.10)"/>

  <path d="M 30 26 Q 56 8 82 26" fill="hsl(88 80% 55%)" opacity="0.95"/><rect x="30" y="24" width="52" height="10" rx="5" fill="hsl(118 85% 45%)" opacity="0.95"/>

  <!-- body/head -->
  <rect x="28" y="16" width="56" height="78" rx="34" fill="url(#body)" stroke="rgba(0,0,0,0.22)"/>

  <path d="M 30 32 L 38 12 L 46 32 L 54 10 L 62 32 L 70 14 L 78 32" stroke="hsl(331 43% 22%)" stroke-width="4" stroke-linecap="round" fill="none"/>

  <!-- strap -->
  <rect x="22" y="37" width="68" height="14" rx="7" fill="rgba(0,0,0,0.25)"/>

  <!-- goggles/eyes -->
  <circle cx="38" cy="44" r="13" fill="hsl(0 0% 88%)" stroke="hsl(0 0% 35%)" stroke-width="3"/><circle cx="38" cy="44" r="8.06" fill="white" stroke="rgba(0,0,0,0.10)" stroke-width="2"/><circle cx="38" cy="44" r="4.94" fill="hsl(105 70% 45%)"/><circle cx="39.65" cy="42.65" r="2.34" fill="hsl(0 0% 12%)"/><circle cx="40.85" cy="41.25" r="1.3" fill="rgba(255,255,255,0.75)"/>
  <circle cx="56" cy="44" r="13" fill="hsl(0 0% 88%)" stroke="hsl(0 0% 35%)" stroke-width="3"/><circle cx="56" cy="44" r="8.06" fill="white" stroke="rgba(0,0,0,0.10)" stroke-width="2"/><circle cx="56" cy="44" r="4.94" fill="hsl(105 70% 45%)"/><circle cx="57.1" cy="42.65" r="2.34" fill="hsl(0 0% 12%)"/><circle cx="58.300000000000004" cy="41.25" r="1.3" fill="rgba(255,255,255,0.75)"/>
  <circle cx="74" cy="44" r="13" fill="hsl(0 0% 88%)" stroke="hsl(0 0% 35%)" stroke-width="3"/><circle cx="74" cy="44" r="8.06" fill="white" stroke="rgba(0,0,0,0.10)" stroke-width="2"/><circle cx="74" cy="44" r="4.94" fill="hsl(105 70% 45%)"/><circle cx="73.45" cy="45.35" r="2.34" fill="hsl(0 0% 12%)"/><circle cx="74.65" cy="43.95" r="1.3" fill="rgba(255,255,255,0.75)"/>

  <!-- mouth/face details -->
  <circle cx="36" cy="62" r="4" fill="rgba(255,120,150,0.25)"/><circle cx="76" cy="62" r="4" fill="rgba(255,120,150,0.25)"/>
  <circle cx="46" cy="60" r="1.2" fill="rgba(0,0,0,0.18)"/><circle cx="50" cy="62" r="1.2" fill="rgba(0,0,0,0.16)"/><circle cx="54" cy="60" r="1.2" fill="rgba(0,0,0,0.14)"/><circle cx="66" cy="60" r="1.2" fill="rgba(0,0,0,0.18)"/><circle cx="62" cy="62" r="1.2" fill="rgba(0,0,0,0.16)"/><circle cx="58" cy="60" r="1.2" fill="rgba(0,0,0,0.14)"/>
  <path d="M 42 67 Q 56 74 70 64" stroke="rgba(0,0,0,0.45)" stroke-width="3" stroke-linecap="round" fill="none"/>

  <!-- outfit -->
  <path d="M 30 64 C 40 56 46 56 56 62 C 66 56 72 56 82 64 L 82 96 L 30 96 Z" fill="url(#outfit)"/><rect x="38" y="62" width="10" height="16" rx="4" fill="url(#outfit)"/><rect x="64" y="62" width="10" height="16" rx="4" fill="url(#outfit)"/><circle cx="43" cy="74" r="2.4" fill="hsl(279 85% 60%)"/><circle cx="69" cy="74" r="2.4" fill="hsl(279 85% 60%)"/><rect x="48" y="78" width="16" height="12" rx="4" fill="rgba(0,0,0,0.18)"/><path d="M 51 84 L 61 84" stroke="rgba(255,255,255,0.30)" stroke-width="2" stroke-linecap="round"/>

  <!-- id label -->
  <text x="56" y="102" text-anchor="middle" font-family="ui-sans-serif, system-ui, -apple-system, Segoe UI, Roboto, Helvetica, Arial" font-size="8" fill="rgba(255,255,255,0.60)">RUNE</text>
</svg>
