<?xml version="1.0" encoding="UTF-8"?>
<svg xmlns="http://www.w3.org/2000/svg" width="112" height="112" viewBox="0 0 112 112">
  <defs>
    <linearGradient id="bg" x1="0" y1="0" x2="1" y2="1">
      <stop offset="0" stop-color="hsl(108 75% 14%)"/>
      <stop offset="1" stop-color="hsl(165 85% 8%)"/>
    </linearGradient>
    <linearGradient id="body" x1="0" y1="0" x2="0" y2="1">
      <stop offset="0" stop-color="hsl(200 90% 62%)"/>
      <stop offset="1" stop-color="hsl(210 85% 46%)"/>
    </linearGradient>
    <linearGradient id="outfit" x1="0" y1="0" x2="0" y2="1">
      <stop offset="0" stop-color="hsl(58 77% 34%)"/>
      <stop offset="1" stop-color="hsl(58 67% 31%)"/>
    </linearGradient>
  </defs>

  <rect x="0" y="0" width="112" height="112" rx="22" fill="url(#bg)"/>
  <rect x="8" y="8" width="96" height="96" rx="18" fill="rgba(255,255,255,0.04)" stroke="rgba(255,255,255,0.10)"/>

  <circle cx="74" cy="78" r="6" fill="hsl(138 80% 55%)" stroke="rgba(0,0,0,0.25)" stroke-width="2"/><path d="M 71 78 L 77 78" stroke="rgba(0,0,0,0.35)" stroke-width="2" stroke-linecap="round"/>

  <!-- body/head -->
  <rect x="28" y="16" width="56" height="78" rx="34" fill="url(#body)" stroke="rgba(0,0,0,0.22)"/>

  <path d="M 30 38 Q 46 4 62 32 Q 72 14 82 36" stroke="hsl(157 56% 28%)" stroke-width="6" stroke-linecap="round" fill="none"/>

  <!-- strap -->
  <rect x="22" y="37" width="68" height="14" rx="7" fill="rgba(255,255,255,0.10)"/>

  <!-- goggles/eyes -->
  <circle cx="56" cy="44" r="15" fill="hsl(46 95% 55%)" stroke="hsl(34 85% 22%)" stroke-width="3"/><circle cx="56" cy="44" r="9.3" fill="white" stroke="rgba(0,0,0,0.10)" stroke-width="2"/><circle cx="56" cy="44" r="5.7" fill="hsl(332 70% 45%)"/><circle cx="56.55" cy="45.35" r="2.6999999999999997" fill="hsl(0 0% 12%)"/><circle cx="57.75" cy="43.95" r="1.3" fill="rgba(255,255,255,0.75)"/><path d="M 43 40 Q 56 34 69 40" stroke="rgba(0,0,0,0.25)" stroke-width="4" stroke-linecap="round" fill="none"/>

  <!-- mouth/face details -->
  <circle cx="36" cy="62" r="4" fill="rgba(255,120,150,0.25)"/><circle cx="76" cy="62" r="4" fill="rgba(255,120,150,0.25)"/>
  
  <path d="M 42 66 Q 56 76 70 66" stroke="rgba(0,0,0,0.45)" stroke-width="3" stroke-linecap="round" fill="none"/>

  <!-- outfit -->
  <path d="M 28 64 Q 56 48 84 64 L 84 96 L 28 96 Z" fill="url(#outfit)"/><path d="M 40 66 Q 56 56 72 66" stroke="rgba(255,255,255,0.25)" stroke-width="3" stroke-linecap="round" fill="none"/><path d="M 52 70 L 50 80 M 60 70 L 62 80" stroke="rgba(0,0,0,0.20)" stroke-width="2" stroke-linecap="round"/>

  <!-- id label -->
  <text x="56" y="102" text-anchor="middle" font-family="ui-sans-serif, system-ui, -apple-system, Segoe UI, Roboto, Helvetica, Arial" font-size="8" fill="rgba(255,255,255,0.60)">SABLE</text>
</svg>
