<?xml version="1.0" encoding="UTF-8"?>
<svg xmlns="http://www.w3.org/2000/svg" width="112" height="112" viewBox="0 0 112 112">
  <defs>
    <linearGradient id="bg" x1="0" y1="0" x2="1" y2="1">
      <stop offset="0" stop-color="hsl(355 75% 14%)"/>
      <stop offset="1" stop-color="hsl(53 85% 8%)"/>
    </linearGradient>
    <linearGradient id="body" x1="0" y1="0" x2="0" y2="1">
      <stop offset="0" stop-color="hsl(330 85% 68%)"/>
      <stop offset="1" stop-color="hsl(335 78% 52%)"/>
    </linearGradient>
    <linearGradient id="outfit" x1="0" y1="0" x2="0" y2="1">
      <stop offset="0" stop-color="hsl(219 67% 35%)"/>
      <stop offset="1" stop-color="hsl(219 57% 19%)"/>
    </linearGradient>
  </defs>

  <rect x="0" y="0" width="112" height="112" rx="22" fill="url(#bg)"/>
  <rect x="8" y="8" width="96" height="96" rx="18" fill="rgba(255,255,255,0.04)" stroke="rgba(255,255,255,0.10)"/>

  <path d="M 30 26 Q 56 8 82 26" fill="hsl(43 80% 55%)" opacity="0.95"/><rect x="30" y="24" width="52" height="10" rx="5" fill="hsl(73 85% 45%)" opacity="0.95"/>

  <!-- body/head -->
  <rect x="28" y="16" width="56" height="78" rx="34" fill="url(#body)" stroke="rgba(0,0,0,0.22)"/>

  <path d="M 30 32 L 38 12 L 46 32 L 54 10 L 62 32 L 70 14 L 78 32" stroke="hsl(325 79% 45%)" stroke-width="4" stroke-linecap="round" fill="none"/>

  <!-- strap -->
  <rect x="22" y="37" width="68" height="14" rx="7" fill="rgba(255,255,255,0.10)"/>

  <!-- goggles/eyes -->
  <circle cx="56" cy="44" r="15" fill="hsl(46 95% 55%)" stroke="hsl(34 85% 22%)" stroke-width="3"/><circle cx="56" cy="44" r="9.3" fill="white" stroke="rgba(0,0,0,0.10)" stroke-width="2"/><circle cx="56" cy="44" r="5.7" fill="hsl(172 70% 45%)"/><circle cx="56.55" cy="44.45" r="2.6999999999999997" fill="hsl(0 0% 12%)"/><circle cx="57.75" cy="43.050000000000004" r="1.3" fill="rgba(255,255,255,0.75)"/>

  <!-- mouth/face details -->
  
  
  <path d="M 42 68 Q 56 60 70 68" stroke="rgba(0,0,0,0.45)" stroke-width="3" stroke-linecap="round" fill="none"/>

  <!-- outfit -->
  <path d="M 30 60 Q 56 50 82 60 L 82 96 L 30 96 Z" fill="url(#outfit)"/><path d="M 56 60 L 56 96" stroke="rgba(255,255,255,0.20)" stroke-width="3"/><path d="M 40 76 Q 56 86 72 76" stroke="url(#outfit)" stroke-width="4" stroke-linecap="round" fill="none"/>

  <!-- id label -->
  <text x="56" y="102" text-anchor="middle" font-family="ui-sans-serif, system-ui, -apple-system, Segoe UI, Roboto, Helvetica, Arial" font-size="8" fill="rgba(255,255,255,0.60)">SPARROW</text>
</svg>
